<?xml version="1.0" encoding="UTF-8" standalone="no"?>
<!DOCTYPE svg PUBLIC "-//W3C//DTD SVG 1.1//EN"
 "http://www.w3.org/Graphics/SVG/1.1/DTD/svg11.dtd">
<!-- Generated by graphviz version 2.43.0 (0)
 -->
<!-- Title: workflow Pages: 1 -->
<svg width="1031pt" height="1988pt"
 viewBox="0.00 0.00 1030.87 1988.00" xmlns="http://www.w3.org/2000/svg" xmlns:xlink="http://www.w3.org/1999/xlink">
<g id="graph0" class="graph" transform="scale(1 1) rotate(0) translate(18 1970)">
<title>workflow</title>
<polygon fill="#ffffff" stroke="transparent" points="-18,18 -18,-1970 1012.87,-1970 1012.87,18 -18,18"/>
<g id="clust1" class="cluster">
<title>cluster_qc</title>
<path fill="#ffffff" stroke="#b8c8d4" d="M412,-1431C412,-1431 768,-1431 768,-1431 774,-1431 780,-1437 780,-1443 780,-1443 780,-1932 780,-1932 780,-1938 774,-1944 768,-1944 768,-1944 412,-1944 412,-1944 406,-1944 400,-1938 400,-1932 400,-1932 400,-1443 400,-1443 400,-1437 406,-1431 412,-1431"/>
<text text-anchor="middle" x="590" y="-1928.8" font-family="Helvetica,sans-Serif" font-size="14.00">Invocation 1: public accessions to library QC</text>
</g>
<g id="clust4" class="cluster">
<title>cluster_review</title>
<path fill="#ffffff" stroke="#d4b8ca" stroke-dasharray="5,2" d="M544,-1258C544,-1258 762,-1258 762,-1258 768,-1258 774,-1264 774,-1270 774,-1270 774,-1402 774,-1402 774,-1408 768,-1414 762,-1414 762,-1414 544,-1414 544,-1414 538,-1414 532,-1408 532,-1402 532,-1402 532,-1270 532,-1270 532,-1264 538,-1258 544,-1258"/>
<text text-anchor="middle" x="653" y="-1398.8" font-family="Helvetica,sans-Serif" font-size="14.00">Explicit manual checkpoint</text>
</g>
<g id="clust5" class="cluster">
<title>cluster_master</title>
<path fill="#ffffff" stroke="#a9ccb5" d="M219,-1016C219,-1016 614,-1016 614,-1016 620,-1016 626,-1022 626,-1028 626,-1028 626,-1229 626,-1229 626,-1235 620,-1241 614,-1241 614,-1241 219,-1241 219,-1241 213,-1241 207,-1235 207,-1229 207,-1229 207,-1028 207,-1028 207,-1022 213,-1016 219,-1016"/>
<text text-anchor="middle" x="416.5" y="-1225.8" font-family="Helvetica,sans-Serif" font-size="14.00">Invocation 2: reviewed ATAC BAMs to master DHS registry</text>
</g>
<g id="clust6" class="cluster">
<title>cluster_activity</title>
<path fill="#ffffff" stroke="#d9c18c" d="M20,-8C20,-8 828,-8 828,-8 834,-8 840,-14 840,-20 840,-20 840,-987 840,-987 840,-993 834,-999 828,-999 828,-999 20,-999 20,-999 14,-999 8,-993 8,-987 8,-987 8,-20 8,-20 8,-14 14,-8 20,-8"/>
<text text-anchor="middle" x="424" y="-983.8" font-family="Helvetica,sans-Serif" font-size="14.00">Invocation 3: accepted BAMs and frozen master to catalog, links, and report</text>
</g>
<!-- inputs -->
<g id="node1" class="node">
<title>inputs</title>
<path fill="#f4f7fa" stroke="#40566b" d="M634,-1907C634,-1907 426,-1907 426,-1907 420,-1907 414,-1901 414,-1895 414,-1895 414,-1883 414,-1883 414,-1877 420,-1871 426,-1871 426,-1871 634,-1871 634,-1871 640,-1871 646,-1877 646,-1883 646,-1883 646,-1895 646,-1895 646,-1901 640,-1907 634,-1907"/>
<text text-anchor="middle" x="530" y="-1892.2" font-family="Helvetica,sans-Serif" font-size="11.00">Sample sheet</text>
<text text-anchor="middle" x="530" y="-1880.2" font-family="Helvetica,sans-Serif" font-size="11.00">accession + library + assay + context</text>
</g>
<!-- download -->
<g id="node2" class="node">
<title>download</title>
<path fill="#f4f7fa" stroke="#40566b" d="M738,-1838C738,-1838 624,-1838 624,-1838 618,-1838 612,-1832 612,-1826 612,-1826 612,-1814 612,-1814 612,-1808 618,-1802 624,-1802 624,-1802 738,-1802 738,-1802 744,-1802 750,-1808 750,-1814 750,-1814 750,-1826 750,-1826 750,-1832 744,-1838 738,-1838"/>
<text text-anchor="middle" x="681" y="-1823.2" font-family="Helvetica,sans-Serif" font-size="11.00">Checksummed FASTQ</text>
<text text-anchor="middle" x="681" y="-1811.2" font-family="Helvetica,sans-Serif" font-size="11.00">download</text>
</g>
<!-- inputs&#45;&gt;download -->
<g id="edge1" class="edge">
<title>inputs&#45;&gt;download</title>
<path fill="none" stroke="#607d8b" d="M568.49,-1870.92C589.08,-1861.78 614.55,-1850.48 636.04,-1840.95"/>
<polygon fill="#607d8b" stroke="#607d8b" points="637.17,-1843.13 642.58,-1838.05 635.18,-1838.65 637.17,-1843.13"/>
</g>
<!-- reference -->
<g id="node3" class="node">
<title>reference</title>
<path fill="#eef6ff" stroke="#40566b" d="M574.5,-1838C574.5,-1838 441.5,-1838 441.5,-1838 435.5,-1838 429.5,-1832 429.5,-1826 429.5,-1826 429.5,-1814 429.5,-1814 429.5,-1808 435.5,-1802 441.5,-1802 441.5,-1802 574.5,-1802 574.5,-1802 580.5,-1802 586.5,-1808 586.5,-1814 586.5,-1814 586.5,-1826 586.5,-1826 586.5,-1832 580.5,-1838 574.5,-1838"/>
<text text-anchor="middle" x="508" y="-1823.2" font-family="Helvetica,sans-Serif" font-size="11.00">Checksummed dm6/hg38</text>
<text text-anchor="middle" x="508" y="-1811.2" font-family="Helvetica,sans-Serif" font-size="11.00">reference preparation</text>
</g>
<!-- inputs&#45;&gt;reference -->
<g id="edge4" class="edge">
<title>inputs&#45;&gt;reference</title>
<path fill="none" stroke="#607d8b" d="M524.33,-1870.75C521.79,-1862.99 518.74,-1853.7 515.97,-1845.27"/>
<polygon fill="#607d8b" stroke="#607d8b" points="518.23,-1844.31 513.72,-1838.43 513.58,-1845.84 518.23,-1844.31"/>
</g>
<!-- trim -->
<g id="node4" class="node">
<title>trim</title>
<path fill="#f4f7fa" stroke="#40566b" d="M747,-1769C747,-1769 569,-1769 569,-1769 563,-1769 557,-1763 557,-1757 557,-1757 557,-1745 557,-1745 557,-1739 563,-1733 569,-1733 569,-1733 747,-1733 747,-1733 753,-1733 759,-1739 759,-1745 759,-1745 759,-1757 759,-1757 759,-1763 753,-1769 747,-1769"/>
<text text-anchor="middle" x="658" y="-1754.2" font-family="Helvetica,sans-Serif" font-size="11.00">Raw/trimmed FastQC + Cutadapt</text>
<text text-anchor="middle" x="658" y="-1742.2" font-family="Helvetica,sans-Serif" font-size="11.00">trimming checkpoint</text>
</g>
<!-- download&#45;&gt;trim -->
<g id="edge2" class="edge">
<title>download&#45;&gt;trim</title>
<path fill="none" stroke="#607d8b" d="M675.08,-1801.75C672.41,-1793.99 669.23,-1784.7 666.33,-1776.27"/>
<polygon fill="#607d8b" stroke="#607d8b" points="668.57,-1775.25 663.98,-1769.43 663.94,-1776.84 668.57,-1775.25"/>
</g>
<!-- align -->
<g id="node5" class="node">
<title>align</title>
<path fill="#f4f7fa" stroke="#40566b" d="M681,-1700C681,-1700 511,-1700 511,-1700 505,-1700 499,-1694 499,-1688 499,-1688 499,-1664 499,-1664 499,-1658 505,-1652 511,-1652 511,-1652 681,-1652 681,-1652 687,-1652 693,-1658 693,-1664 693,-1664 693,-1688 693,-1688 693,-1694 687,-1700 681,-1700"/>
<text text-anchor="middle" x="596" y="-1685.2" font-family="Helvetica,sans-Serif" font-size="11.00">Lane alignment + library merge</text>
<text text-anchor="middle" x="596" y="-1673.2" font-family="Helvetica,sans-Serif" font-size="11.00">duplicate mark + quality filter</text>
<text text-anchor="middle" x="596" y="-1661.2" font-family="Helvetica,sans-Serif" font-size="11.00">blacklist reads retained</text>
</g>
<!-- reference&#45;&gt;align -->
<g id="edge5" class="edge">
<title>reference&#45;&gt;align</title>
<path fill="none" stroke="#607d8b" d="M513.53,-1801.68C519.71,-1783.69 530.74,-1755.13 545,-1733 551.25,-1723.3 559.21,-1713.66 566.98,-1705.19"/>
<polygon fill="#607d8b" stroke="#607d8b" points="568.77,-1706.86 571.77,-1700.08 565.19,-1703.51 568.77,-1706.86"/>
</g>
<!-- validate -->
<g id="node15" class="node">
<title>validate</title>
<path fill="#eef6ff" stroke="#40566b" d="M717.5,-962C717.5,-962 534.5,-962 534.5,-962 528.5,-962 522.5,-956 522.5,-950 522.5,-950 522.5,-938 522.5,-938 522.5,-932 528.5,-926 534.5,-926 534.5,-926 717.5,-926 717.5,-926 723.5,-926 729.5,-932 729.5,-938 729.5,-938 729.5,-950 729.5,-950 729.5,-956 723.5,-962 717.5,-962"/>
<text text-anchor="middle" x="626" y="-947.2" font-family="Helvetica,sans-Serif" font-size="11.00">Validate accepted BAMs + master</text>
<text text-anchor="middle" x="626" y="-935.2" font-family="Helvetica,sans-Serif" font-size="11.00">no upstream fallback</text>
</g>
<!-- reference&#45;&gt;validate -->
<g id="edge49" class="edge">
<title>reference&#45;&gt;validate</title>
<path fill="none" stroke="#607d8b" stroke-dasharray="5,2" d="M586.55,-1804.43C664.09,-1790 771.24,-1769.92 772,-1769 782.21,-1756.68 780.49,-1746.56 772,-1733 763.24,-1719.02 737.69,-1732.45 739,-1716 744.35,-1648.7 733.28,-1626.62 763,-1566 767.29,-1557.25 774.42,-1559.06 778,-1550 783.88,-1535.12 785.41,-1528.18 778,-1514 772.23,-1502.96 761.42,-1508.67 755,-1498 737.7,-1469.23 748,-1456.51 746,-1423 745.07,-1407.4 770.29,-1426.25 780,-1414 823.05,-1359.65 811.46,-1319.78 780,-1258 777.26,-1252.61 772.89,-1254.63 769,-1250 737.8,-1212.87 739.91,-1196.66 721,-1152 695.94,-1092.84 700.54,-1073.56 672,-1016 663.68,-999.23 652.24,-981.55 642.85,-968.03"/>
<polygon fill="#607d8b" stroke="#607d8b" points="644.73,-966.45 638.7,-962.13 640.72,-969.27 644.73,-966.45"/>
</g>
<!-- nearestwide -->
<g id="node26" class="node">
<title>nearestwide</title>
<path fill="#dbeedc" stroke="#40566b" d="M701.5,-372C701.5,-372 538.5,-372 538.5,-372 532.5,-372 526.5,-366 526.5,-360 526.5,-360 526.5,-336 526.5,-336 526.5,-330 532.5,-324 538.5,-324 538.5,-324 701.5,-324 701.5,-324 707.5,-324 713.5,-330 713.5,-336 713.5,-336 713.5,-360 713.5,-360 713.5,-366 707.5,-372 701.5,-372"/>
<text text-anchor="middle" x="620" y="-357.2" font-family="Helvetica,sans-Serif" font-size="11.00">Default: one row per enhancer</text>
<text text-anchor="middle" x="620" y="-345.2" font-family="Helvetica,sans-Serif" font-size="11.00">nearest annotated TSS ties +</text>
<text text-anchor="middle" x="620" y="-333.2" font-family="Helvetica,sans-Serif" font-size="11.00">context promoter activity</text>
</g>
<!-- reference&#45;&gt;nearestwide -->
<g id="edge50" class="edge">
<title>reference&#45;&gt;nearestwide</title>
<path fill="none" stroke="#607d8b" stroke-dasharray="5,2" d="M586.76,-1804.27C591.24,-1803.49 595.67,-1802.73 600,-1802 643.13,-1794.76 766.16,-1802.73 794,-1769 803.48,-1757.52 793.56,-1649.88 794,-1635 795.11,-1597.17 797.89,-1587.83 799,-1550 799,-1550 799,-1422 799,-1422 802.6,-1415.8 809,-1419.94 813,-1414 835.55,-1380.53 829.79,-1364.07 825,-1324 821.42,-1294.03 817.9,-1286.84 809,-1258 794.15,-1209.89 780.96,-1200.91 769,-1152 744.97,-1053.74 771.05,-1022.9 742,-926 739.6,-918 730.61,-916.63 734,-909 756.85,-857.52 803.19,-874.57 828,-824 867.66,-743.18 891.04,-491.74 838,-419 810.99,-381.96 764.07,-364.08 720.66,-355.63"/>
<polygon fill="#607d8b" stroke="#607d8b" points="721.06,-353.21 713.73,-354.35 720.17,-358.03 721.06,-353.21"/>
</g>
<!-- links -->
<g id="node30" class="node">
<title>links</title>
<path fill="#c7e5df" stroke="#40566b" d="M480,-208C480,-208 284,-208 284,-208 278,-208 272,-202 272,-196 272,-196 272,-184 272,-184 272,-178 278,-172 284,-172 284,-172 480,-172 480,-172 486,-172 492,-178 492,-184 492,-184 492,-196 492,-196 492,-202 486,-208 480,-208"/>
<text text-anchor="middle" x="382" y="-193.2" font-family="Helvetica,sans-Serif" font-size="11.00">Optional element&#45;&#45;promoter graph +</text>
<text text-anchor="middle" x="382" y="-181.2" font-family="Helvetica,sans-Serif" font-size="11.00">complete gene candidates</text>
</g>
<!-- reference&#45;&gt;links -->
<g id="edge51" class="edge">
<title>reference&#45;&gt;links</title>
<path fill="none" stroke="#607d8b" stroke-dasharray="5,2" d="M586.71,-1803.94C591.2,-1803.24 595.65,-1802.59 600,-1802 647.9,-1795.5 788.66,-1809.53 815,-1769 1122.83,-1295.42 957.82,-1059.99 884,-500 871.56,-405.62 898.34,-358.22 829,-293 782,-248.8 615.29,-219.68 499.32,-204.26"/>
<polygon fill="#607d8b" stroke="#607d8b" points="499.36,-201.8 492.1,-203.31 498.72,-206.65 499.36,-201.8"/>
</g>
<!-- trim&#45;&gt;align -->
<g id="edge3" class="edge">
<title>trim&#45;&gt;align</title>
<path fill="none" stroke="#607d8b" d="M643.31,-1732.7C636.49,-1724.67 628.19,-1714.91 620.47,-1705.81"/>
<polygon fill="#607d8b" stroke="#607d8b" points="622.15,-1704 615.75,-1700.25 618.41,-1707.17 622.15,-1704"/>
</g>
<!-- bammanifest -->
<g id="node6" class="node">
<title>bammanifest</title>
<path fill="#e5f1ff" stroke="#40566b" d="M753.5,-1550C753.5,-1550 660.5,-1550 660.5,-1550 654.5,-1550 648.5,-1544 648.5,-1538 648.5,-1538 648.5,-1526 648.5,-1526 648.5,-1520 654.5,-1514 660.5,-1514 660.5,-1514 753.5,-1514 753.5,-1514 759.5,-1514 765.5,-1520 765.5,-1526 765.5,-1526 765.5,-1538 765.5,-1538 765.5,-1544 759.5,-1550 753.5,-1550"/>
<text text-anchor="middle" x="707" y="-1535.2" font-family="Helvetica,sans-Serif" font-size="11.00">Pending final&#45;BAM</text>
<text text-anchor="middle" x="707" y="-1523.2" font-family="Helvetica,sans-Serif" font-size="11.00">manifest</text>
</g>
<!-- align&#45;&gt;bammanifest -->
<g id="edge6" class="edge">
<title>align&#45;&gt;bammanifest</title>
<path fill="none" stroke="#607d8b" d="M655.9,-1651.96C670.45,-1643.66 684.53,-1632.82 694,-1619 706.32,-1601.02 708.88,-1575.96 708.77,-1557.54"/>
<polygon fill="#607d8b" stroke="#607d8b" points="711.21,-1557.02 708.58,-1550.08 706.31,-1557.14 711.21,-1557.02"/>
</g>
<!-- qc -->
<g id="node7" class="node">
<title>qc</title>
<path fill="#f1e9fa" stroke="#40566b" d="M669.5,-1619C669.5,-1619 506.5,-1619 506.5,-1619 500.5,-1619 494.5,-1613 494.5,-1607 494.5,-1607 494.5,-1595 494.5,-1595 494.5,-1589 500.5,-1583 506.5,-1583 506.5,-1583 669.5,-1583 669.5,-1583 675.5,-1583 681.5,-1589 681.5,-1595 681.5,-1595 681.5,-1607 681.5,-1607 681.5,-1613 675.5,-1619 669.5,-1619"/>
<text text-anchor="middle" x="588" y="-1604.2" font-family="Helvetica,sans-Serif" font-size="11.00">Lenient replicate peaks + FRiP</text>
<text text-anchor="middle" x="588" y="-1592.2" font-family="Helvetica,sans-Serif" font-size="11.00">assay QC + MultiQC</text>
</g>
<!-- align&#45;&gt;qc -->
<g id="edge7" class="edge">
<title>align&#45;&gt;qc</title>
<path fill="none" stroke="#607d8b" d="M593.47,-1651.9C592.59,-1643.84 591.59,-1634.77 590.7,-1626.6"/>
<polygon fill="#607d8b" stroke="#607d8b" points="593.1,-1626.08 589.91,-1619.39 588.23,-1626.62 593.1,-1626.08"/>
</g>
<!-- reviewtable -->
<g id="node9" class="node">
<title>reviewtable</title>
<path fill="#f8e8f5" stroke="#40566b" d="M688,-1481C688,-1481 618,-1481 618,-1481 612,-1481 606,-1475 606,-1469 606,-1469 606,-1457 606,-1457 606,-1451 612,-1445 618,-1445 618,-1445 688,-1445 688,-1445 694,-1445 700,-1451 700,-1457 700,-1457 700,-1469 700,-1469 700,-1475 694,-1481 688,-1481"/>
<text text-anchor="middle" x="653" y="-1466.2" font-family="Helvetica,sans-Serif" font-size="11.00">Per&#45;library QC</text>
<text text-anchor="middle" x="653" y="-1454.2" font-family="Helvetica,sans-Serif" font-size="11.00">review table</text>
</g>
<!-- bammanifest&#45;&gt;reviewtable -->
<g id="edge9" class="edge">
<title>bammanifest&#45;&gt;reviewtable</title>
<path fill="none" stroke="#607d8b" d="M693.09,-1513.75C686.59,-1505.68 678.76,-1495.96 671.74,-1487.26"/>
<polygon fill="#607d8b" stroke="#607d8b" points="673.35,-1485.34 667.05,-1481.43 669.53,-1488.42 673.35,-1485.34"/>
</g>
<!-- qccheckpoint -->
<g id="node8" class="node">
<title>qccheckpoint</title>
<path fill="#f1e9fa" stroke="#40566b" d="M584,-1550C584,-1550 426,-1550 426,-1550 420,-1550 414,-1544 414,-1538 414,-1538 414,-1526 414,-1526 414,-1520 420,-1514 426,-1514 426,-1514 584,-1514 584,-1514 590,-1514 596,-1520 596,-1526 596,-1526 596,-1538 596,-1538 596,-1544 590,-1550 584,-1550"/>
<text text-anchor="middle" x="505" y="-1535.2" font-family="Helvetica,sans-Serif" font-size="11.00">Checksummed QC checkpoint</text>
<text text-anchor="middle" x="505" y="-1523.2" font-family="Helvetica,sans-Serif" font-size="11.00">peak/refinement parameters</text>
</g>
<!-- qc&#45;&gt;qccheckpoint -->
<g id="edge8" class="edge">
<title>qc&#45;&gt;qccheckpoint</title>
<path fill="none" stroke="#607d8b" d="M566.63,-1582.75C556.07,-1574.23 543.23,-1563.86 532,-1554.8"/>
<polygon fill="#607d8b" stroke="#607d8b" points="533.29,-1552.69 526.3,-1550.2 530.21,-1556.5 533.29,-1552.69"/>
</g>
<!-- qc&#45;&gt;reviewtable -->
<g id="edge10" class="edge">
<title>qc&#45;&gt;reviewtable</title>
<path fill="none" stroke="#607d8b" d="M596.23,-1582.78C607.76,-1558.66 628.75,-1514.75 641.72,-1487.6"/>
<polygon fill="#607d8b" stroke="#607d8b" points="644.03,-1488.46 644.83,-1481.08 639.61,-1486.34 644.03,-1488.46"/>
</g>
<!-- context -->
<g id="node12" class="node">
<title>context</title>
<path fill="#dff3e5" stroke="#40566b" d="M580,-1204C580,-1204 462,-1204 462,-1204 456,-1204 450,-1198 450,-1192 450,-1192 450,-1180 450,-1180 450,-1174 456,-1168 462,-1168 462,-1168 580,-1168 580,-1168 586,-1168 592,-1174 592,-1180 592,-1180 592,-1192 592,-1192 592,-1198 586,-1204 580,-1204"/>
<text text-anchor="middle" x="521" y="-1189.2" font-family="Helvetica,sans-Serif" font-size="11.00">Pooled context calls +</text>
<text text-anchor="middle" x="521" y="-1177.2" font-family="Helvetica,sans-Serif" font-size="11.00">replicate&#45;support filter</text>
</g>
<!-- qccheckpoint&#45;&gt;context -->
<g id="edge46" class="edge">
<title>qccheckpoint&#45;&gt;context</title>
<path fill="none" stroke="#607d8b" d="M505,-1513.93C505,-1500.39 505,-1480.98 505,-1464 505,-1464 505,-1464 505,-1289 505,-1262.06 510.51,-1231.6 515.07,-1211.04"/>
<polygon fill="#607d8b" stroke="#607d8b" points="517.46,-1211.57 516.63,-1204.2 512.68,-1210.48 517.46,-1211.57"/>
</g>
<!-- review -->
<g id="node10" class="node">
<title>review</title>
<path fill="#f8e8f5" stroke="#40566b" d="M748,-1377C748,-1377 558,-1377 558,-1377 552,-1377 546,-1371 546,-1365 546,-1365 546,-1353 546,-1353 546,-1347 552,-1341 558,-1341 558,-1341 748,-1341 748,-1341 754,-1341 760,-1347 760,-1353 760,-1353 760,-1365 760,-1365 760,-1371 754,-1377 748,-1377"/>
<text text-anchor="middle" x="653" y="-1362.2" font-family="Helvetica,sans-Serif" font-size="11.00">User records pass/fail</text>
<text text-anchor="middle" x="653" y="-1350.2" font-family="Helvetica,sans-Serif" font-size="11.00">and fragment length when required</text>
</g>
<!-- reviewtable&#45;&gt;review -->
<g id="edge44" class="edge">
<title>reviewtable&#45;&gt;review</title>
<path fill="none" stroke="#607d8b" d="M653,-1444.7C653,-1428.04 653,-1402.7 653,-1384.07"/>
<polygon fill="#607d8b" stroke="#607d8b" points="655.45,-1384.05 653,-1377.05 650.55,-1384.05 655.45,-1384.05"/>
</g>
<!-- reviewedbam -->
<g id="node11" class="node">
<title>reviewedbam</title>
<path fill="#e5f1ff" stroke="#40566b" d="M746.5,-1308C746.5,-1308 559.5,-1308 559.5,-1308 553.5,-1308 547.5,-1302 547.5,-1296 547.5,-1296 547.5,-1284 547.5,-1284 547.5,-1278 553.5,-1272 559.5,-1272 559.5,-1272 746.5,-1272 746.5,-1272 752.5,-1272 758.5,-1278 758.5,-1284 758.5,-1284 758.5,-1296 758.5,-1296 758.5,-1302 752.5,-1308 746.5,-1308"/>
<text text-anchor="middle" x="653" y="-1293.2" font-family="Helvetica,sans-Serif" font-size="11.00">Reviewed final&#45;BAM manifest</text>
<text text-anchor="middle" x="653" y="-1281.2" font-family="Helvetica,sans-Serif" font-size="11.00">accepted + documented rejections</text>
</g>
<!-- review&#45;&gt;reviewedbam -->
<g id="edge11" class="edge">
<title>review&#45;&gt;reviewedbam</title>
<path fill="none" stroke="#607d8b" d="M653,-1340.75C653,-1333.07 653,-1323.89 653,-1315.52"/>
<polygon fill="#607d8b" stroke="#607d8b" points="655.45,-1315.43 653,-1308.43 650.55,-1315.43 655.45,-1315.43"/>
</g>
<!-- reviewedbam&#45;&gt;context -->
<g id="edge45" class="edge">
<title>reviewedbam&#45;&gt;context</title>
<path fill="none" stroke="#607d8b" d="M630.91,-1271.93C608.35,-1254.5 573.27,-1227.39 548.83,-1208.5"/>
<polygon fill="#607d8b" stroke="#607d8b" points="550.2,-1206.47 543.17,-1204.13 547.21,-1210.35 550.2,-1206.47"/>
</g>
<!-- reviewedbam&#45;&gt;validate -->
<g id="edge47" class="edge">
<title>reviewedbam&#45;&gt;validate</title>
<path fill="none" stroke="#607d8b" d="M653,-1271.67C653,-1251.38 653,-1216.75 653,-1187 653,-1187 653,-1187 653,-1047 653,-1019.63 643.81,-989.47 636.15,-969.1"/>
<polygon fill="#607d8b" stroke="#607d8b" points="638.34,-967.96 633.52,-962.32 633.77,-969.73 638.34,-967.96"/>
</g>
<!-- master -->
<g id="node13" class="node">
<title>master</title>
<path fill="#ccebd6" stroke="#40566b" d="M598.5,-1135C598.5,-1135 443.5,-1135 443.5,-1135 437.5,-1135 431.5,-1129 431.5,-1123 431.5,-1123 431.5,-1111 431.5,-1111 431.5,-1105 437.5,-1099 443.5,-1099 443.5,-1099 598.5,-1099 598.5,-1099 604.5,-1099 610.5,-1105 610.5,-1111 610.5,-1111 610.5,-1123 610.5,-1123 610.5,-1129 604.5,-1135 598.5,-1135"/>
<text text-anchor="middle" x="521" y="-1120.2" font-family="Helvetica,sans-Serif" font-size="11.00">Variable&#45;width summit&#45;aware</text>
<text text-anchor="middle" x="521" y="-1108.2" font-family="Helvetica,sans-Serif" font-size="11.00">master DHS registry</text>
</g>
<!-- context&#45;&gt;master -->
<g id="edge12" class="edge">
<title>context&#45;&gt;master</title>
<path fill="none" stroke="#607d8b" d="M521,-1167.75C521,-1160.07 521,-1150.89 521,-1142.52"/>
<polygon fill="#607d8b" stroke="#607d8b" points="523.45,-1142.43 521,-1135.43 518.55,-1142.43 523.45,-1142.43"/>
</g>
<!-- mastermanifest -->
<g id="node14" class="node">
<title>mastermanifest</title>
<path fill="#e7f5eb" stroke="#40566b" d="M600,-1066C600,-1066 442,-1066 442,-1066 436,-1066 430,-1060 430,-1054 430,-1054 430,-1042 430,-1042 430,-1036 436,-1030 442,-1030 442,-1030 600,-1030 600,-1030 606,-1030 612,-1036 612,-1042 612,-1042 612,-1054 612,-1054 612,-1060 606,-1066 600,-1066"/>
<text text-anchor="middle" x="521" y="-1051.2" font-family="Helvetica,sans-Serif" font-size="11.00">Checksummed master bundle</text>
<text text-anchor="middle" x="521" y="-1039.2" font-family="Helvetica,sans-Serif" font-size="11.00">master checkpoint</text>
</g>
<!-- master&#45;&gt;mastermanifest -->
<g id="edge13" class="edge">
<title>master&#45;&gt;mastermanifest</title>
<path fill="none" stroke="#607d8b" d="M521,-1098.75C521,-1091.07 521,-1081.89 521,-1073.52"/>
<polygon fill="#607d8b" stroke="#607d8b" points="523.45,-1073.43 521,-1066.43 518.55,-1073.43 523.45,-1073.43"/>
</g>
<!-- mastermanifest&#45;&gt;validate -->
<g id="edge48" class="edge">
<title>mastermanifest&#45;&gt;validate</title>
<path fill="none" stroke="#607d8b" d="M538.81,-1029.7C556.57,-1012.45 583.91,-985.89 603.23,-967.12"/>
<polygon fill="#607d8b" stroke="#607d8b" points="605.14,-968.68 608.45,-962.05 601.72,-965.17 605.14,-968.68"/>
</g>
<!-- units -->
<g id="node16" class="node">
<title>units</title>
<path fill="#fff4d8" stroke="#40566b" d="M684.5,-893C684.5,-893 567.5,-893 567.5,-893 561.5,-893 555.5,-887 555.5,-881 555.5,-881 555.5,-869 555.5,-869 555.5,-863 561.5,-857 567.5,-857 567.5,-857 684.5,-857 684.5,-857 690.5,-857 696.5,-863 696.5,-869 696.5,-869 696.5,-881 696.5,-881 696.5,-887 690.5,-893 684.5,-893"/>
<text text-anchor="middle" x="626" y="-878.2" font-family="Helvetica,sans-Serif" font-size="11.00">ATAC Tn5 insertions +</text>
<text text-anchor="middle" x="626" y="-866.2" font-family="Helvetica,sans-Serif" font-size="11.00">H3K27ac fragments</text>
</g>
<!-- validate&#45;&gt;units -->
<g id="edge14" class="edge">
<title>validate&#45;&gt;units</title>
<path fill="none" stroke="#607d8b" d="M626,-925.75C626,-918.07 626,-908.89 626,-900.52"/>
<polygon fill="#607d8b" stroke="#607d8b" points="628.45,-900.43 626,-893.43 623.55,-900.43 628.45,-900.43"/>
</g>
<!-- exact -->
<g id="node17" class="node">
<title>exact</title>
<path fill="#fff4d8" stroke="#40566b" d="M638.5,-824C638.5,-824 525.5,-824 525.5,-824 519.5,-824 513.5,-818 513.5,-812 513.5,-812 513.5,-800 513.5,-800 513.5,-794 519.5,-788 525.5,-788 525.5,-788 638.5,-788 638.5,-788 644.5,-788 650.5,-794 650.5,-800 650.5,-800 650.5,-812 650.5,-812 650.5,-818 644.5,-824 638.5,-824"/>
<text text-anchor="middle" x="582" y="-809.2" font-family="Helvetica,sans-Serif" font-size="11.00">Exact master&#45;interval</text>
<text text-anchor="middle" x="582" y="-797.2" font-family="Helvetica,sans-Serif" font-size="11.00">raw counts + CPM/kb</text>
</g>
<!-- units&#45;&gt;exact -->
<g id="edge15" class="edge">
<title>units&#45;&gt;exact</title>
<path fill="none" stroke="#607d8b" d="M614.67,-856.75C609.42,-848.76 603.11,-839.15 597.44,-830.51"/>
<polygon fill="#607d8b" stroke="#607d8b" points="599.34,-828.93 593.45,-824.43 595.24,-831.62 599.34,-828.93"/>
</g>
<!-- background -->
<g id="node18" class="node">
<title>background</title>
<path fill="#fff4d8" stroke="#40566b" d="M786.5,-824C786.5,-824 687.5,-824 687.5,-824 681.5,-824 675.5,-818 675.5,-812 675.5,-812 675.5,-800 675.5,-800 675.5,-794 681.5,-788 687.5,-788 687.5,-788 786.5,-788 786.5,-788 792.5,-788 798.5,-794 798.5,-800 798.5,-800 798.5,-812 798.5,-812 798.5,-818 792.5,-824 786.5,-824"/>
<text text-anchor="middle" x="737" y="-809.2" font-family="Helvetica,sans-Serif" font-size="11.00">10&#45;kb autosomal</text>
<text text-anchor="middle" x="737" y="-797.2" font-family="Helvetica,sans-Serif" font-size="11.00">background counts</text>
</g>
<!-- units&#45;&gt;background -->
<g id="edge16" class="edge">
<title>units&#45;&gt;background</title>
<path fill="none" stroke="#607d8b" d="M654.3,-856.92C669.04,-848.02 687.19,-837.07 702.72,-827.69"/>
<polygon fill="#607d8b" stroke="#607d8b" points="704.03,-829.76 708.75,-824.05 701.5,-825.57 704.03,-829.76"/>
</g>
<!-- windows -->
<g id="node19" class="node">
<title>windows</title>
<path fill="#fff4d8" stroke="#40566b" d="M476,-824C476,-824 382,-824 382,-824 376,-824 370,-818 370,-812 370,-812 370,-800 370,-800 370,-794 376,-788 382,-788 382,-788 476,-788 476,-788 482,-788 488,-794 488,-800 488,-800 488,-812 488,-812 488,-818 482,-824 476,-824"/>
<text text-anchor="middle" x="429" y="-809.2" font-family="Helvetica,sans-Serif" font-size="11.00">Three 500&#45;bp</text>
<text text-anchor="middle" x="429" y="-797.2" font-family="Helvetica,sans-Serif" font-size="11.00">H3K27ac windows</text>
</g>
<!-- units&#45;&gt;windows -->
<g id="edge17" class="edge">
<title>units&#45;&gt;windows</title>
<path fill="none" stroke="#607d8b" d="M575.78,-856.92C548.34,-847.59 514.26,-836 485.85,-826.33"/>
<polygon fill="#607d8b" stroke="#607d8b" points="486.55,-823.98 479.13,-824.05 484.97,-828.62 486.55,-823.98"/>
</g>
<!-- browser -->
<g id="node25" class="node">
<title>browser</title>
<path fill="#e1f0f7" stroke="#40566b" d="M813.5,-461C813.5,-461 658.5,-461 658.5,-461 652.5,-461 646.5,-455 646.5,-449 646.5,-449 646.5,-437 646.5,-437 646.5,-431 652.5,-425 658.5,-425 658.5,-425 813.5,-425 813.5,-425 819.5,-425 825.5,-431 825.5,-437 825.5,-437 825.5,-449 825.5,-449 825.5,-455 819.5,-461 813.5,-461"/>
<text text-anchor="middle" x="736" y="-446.2" font-family="Helvetica,sans-Serif" font-size="11.00">Mean TMM ATAC + H3 tracks</text>
<text text-anchor="middle" x="736" y="-434.2" font-family="Helvetica,sans-Serif" font-size="11.00">DHS/cCRE IGV bundles</text>
</g>
<!-- units&#45;&gt;browser -->
<g id="edge25" class="edge">
<title>units&#45;&gt;browser</title>
<path fill="none" stroke="#607d8b" stroke-dasharray="5,2" d="M696.72,-863.73C753.92,-853.37 825,-834.89 825,-807 825,-807 825,-807 825,-517 825,-493.64 806.44,-476.39 786.27,-464.54"/>
<polygon fill="#607d8b" stroke="#607d8b" points="787.29,-462.3 779.98,-461.04 784.9,-466.58 787.29,-462.3"/>
</g>
<!-- tmm -->
<g id="node20" class="node">
<title>tmm</title>
<path fill="#fff0c7" stroke="#40566b" d="M786.5,-755C786.5,-755 617.5,-755 617.5,-755 611.5,-755 605.5,-749 605.5,-743 605.5,-743 605.5,-731 605.5,-731 605.5,-725 611.5,-719 617.5,-719 617.5,-719 786.5,-719 786.5,-719 792.5,-719 798.5,-725 798.5,-731 798.5,-731 798.5,-743 798.5,-743 798.5,-749 792.5,-755 786.5,-755"/>
<text text-anchor="middle" x="702" y="-740.2" font-family="Helvetica,sans-Serif" font-size="11.00">Assay&#45;specific background TMM</text>
<text text-anchor="middle" x="702" y="-728.2" font-family="Helvetica,sans-Serif" font-size="11.00">factors</text>
</g>
<!-- exact&#45;&gt;tmm -->
<g id="edge18" class="edge">
<title>exact&#45;&gt;tmm</title>
<path fill="none" stroke="#607d8b" d="M612.59,-787.92C628.53,-779.02 648.15,-768.07 664.94,-758.69"/>
<polygon fill="#607d8b" stroke="#607d8b" points="666.55,-760.6 671.46,-755.05 664.16,-756.32 666.55,-760.6"/>
</g>
<!-- quantify -->
<g id="node21" class="node">
<title>quantify</title>
<path fill="#ffe5a8" stroke="#40566b" d="M659.5,-686C659.5,-686 502.5,-686 502.5,-686 496.5,-686 490.5,-680 490.5,-674 490.5,-674 490.5,-650 490.5,-650 490.5,-644 496.5,-638 502.5,-638 502.5,-638 659.5,-638 659.5,-638 665.5,-638 671.5,-644 671.5,-650 671.5,-650 671.5,-674 671.5,-674 671.5,-680 665.5,-686 659.5,-686"/>
<text text-anchor="middle" x="581" y="-671.2" font-family="Helvetica,sans-Serif" font-size="11.00">Normalized context signals +</text>
<text text-anchor="middle" x="581" y="-659.2" font-family="Helvetica,sans-Serif" font-size="11.00">master&#45;DHS activity table</text>
<text text-anchor="middle" x="581" y="-647.2" font-family="Helvetica,sans-Serif" font-size="11.00">quantification checkpoint</text>
</g>
<!-- exact&#45;&gt;quantify -->
<g id="edge20" class="edge">
<title>exact&#45;&gt;quantify</title>
<path fill="none" stroke="#607d8b" d="M581.88,-787.87C581.71,-764.48 581.42,-722.16 581.21,-693.33"/>
<polygon fill="#607d8b" stroke="#607d8b" points="583.66,-693.3 581.16,-686.31 578.76,-693.33 583.66,-693.3"/>
</g>
<!-- background&#45;&gt;tmm -->
<g id="edge19" class="edge">
<title>background&#45;&gt;tmm</title>
<path fill="none" stroke="#607d8b" d="M727.99,-787.75C723.85,-779.84 718.89,-770.33 714.41,-761.76"/>
<polygon fill="#607d8b" stroke="#607d8b" points="716.52,-760.5 711.1,-755.43 712.17,-762.77 716.52,-760.5"/>
</g>
<!-- mixture -->
<g id="node22" class="node">
<title>mixture</title>
<path fill="#f7e4b2" stroke="#40566b" d="M670.5,-605C670.5,-605 491.5,-605 491.5,-605 485.5,-605 479.5,-599 479.5,-593 479.5,-593 479.5,-581 479.5,-581 479.5,-575 485.5,-569 491.5,-569 491.5,-569 670.5,-569 670.5,-569 676.5,-569 682.5,-575 682.5,-581 682.5,-581 682.5,-593 682.5,-593 682.5,-599 676.5,-605 670.5,-605"/>
<text text-anchor="middle" x="581" y="-590.2" font-family="Helvetica,sans-Serif" font-size="11.00">Context&#45;averaged max window +</text>
<text text-anchor="middle" x="581" y="-578.2" font-family="Helvetica,sans-Serif" font-size="11.00">guarded two&#45;Gaussian fit</text>
</g>
<!-- windows&#45;&gt;mixture -->
<g id="edge22" class="edge">
<title>windows&#45;&gt;mixture</title>
<path fill="none" stroke="#607d8b" d="M429.58,-787.98C431.57,-755.21 440.24,-682.64 478,-638 488.78,-625.25 503.58,-615.49 518.6,-608.12"/>
<polygon fill="#607d8b" stroke="#607d8b" points="519.73,-610.29 525.03,-605.11 517.65,-605.85 519.73,-610.29"/>
</g>
<!-- tmm&#45;&gt;quantify -->
<g id="edge21" class="edge">
<title>tmm&#45;&gt;quantify</title>
<path fill="none" stroke="#607d8b" d="M673.63,-718.88C659.32,-710.25 641.64,-699.59 625.57,-689.89"/>
<polygon fill="#607d8b" stroke="#607d8b" points="626.53,-687.61 619.27,-686.09 624,-691.8 626.53,-687.61"/>
</g>
<!-- tmm&#45;&gt;browser -->
<g id="edge26" class="edge">
<title>tmm&#45;&gt;browser</title>
<path fill="none" stroke="#607d8b" d="M713.9,-718.87C722.64,-704.59 733,-683.38 733,-663 733,-663 733,-663 733,-517 733,-500.69 733.76,-482.35 734.51,-468.13"/>
<polygon fill="#607d8b" stroke="#607d8b" points="736.96,-468.23 734.9,-461.1 732.07,-467.96 736.96,-468.23"/>
</g>
<!-- quantify&#45;&gt;mixture -->
<g id="edge23" class="edge">
<title>quantify&#45;&gt;mixture</title>
<path fill="none" stroke="#607d8b" d="M581,-637.9C581,-629.84 581,-620.77 581,-612.6"/>
<polygon fill="#607d8b" stroke="#607d8b" points="583.45,-612.39 581,-605.39 578.55,-612.39 583.45,-612.39"/>
</g>
<!-- catalog -->
<g id="node23" class="node">
<title>catalog</title>
<path fill="#f7e4b2" stroke="#40566b" d="M688.5,-536C688.5,-536 503.5,-536 503.5,-536 497.5,-536 491.5,-530 491.5,-524 491.5,-524 491.5,-512 491.5,-512 491.5,-506 497.5,-500 503.5,-500 503.5,-500 688.5,-500 688.5,-500 694.5,-500 700.5,-506 700.5,-512 700.5,-512 700.5,-524 700.5,-524 700.5,-530 694.5,-536 688.5,-536"/>
<text text-anchor="middle" x="596" y="-521.2" font-family="Helvetica,sans-Serif" font-size="11.00">Posterior/TSS/blacklist annotations</text>
<text text-anchor="middle" x="596" y="-509.2" font-family="Helvetica,sans-Serif" font-size="11.00">long, wide, and context catalogs</text>
</g>
<!-- mixture&#45;&gt;catalog -->
<g id="edge24" class="edge">
<title>mixture&#45;&gt;catalog</title>
<path fill="none" stroke="#607d8b" d="M584.86,-568.75C586.6,-560.99 588.68,-551.7 590.57,-543.27"/>
<polygon fill="#607d8b" stroke="#607d8b" points="592.96,-543.79 592.1,-536.43 588.18,-542.72 592.96,-543.79"/>
</g>
<!-- catalog&#45;&gt;browser -->
<g id="edge27" class="edge">
<title>catalog&#45;&gt;browser</title>
<path fill="none" stroke="#607d8b" d="M628.82,-499.88C649.27,-489.22 675.69,-475.45 697.17,-464.25"/>
<polygon fill="#607d8b" stroke="#607d8b" points="698.31,-466.42 703.38,-461.01 696.04,-462.07 698.31,-466.42"/>
</g>
<!-- catalog&#45;&gt;nearestwide -->
<g id="edge28" class="edge">
<title>catalog&#45;&gt;nearestwide</title>
<path fill="none" stroke="#607d8b" d="M599.67,-499.92C601.68,-490.28 604.13,-478 606,-467 610.82,-438.68 611.67,-431.53 615,-403 615.88,-395.43 616.71,-387.24 617.42,-379.58"/>
<polygon fill="#607d8b" stroke="#607d8b" points="619.9,-379.34 618.1,-372.15 615.02,-378.9 619.9,-379.34"/>
</g>
<!-- catalog&#45;&gt;links -->
<g id="edge35" class="edge">
<title>catalog&#45;&gt;links</title>
<path fill="none" stroke="#607d8b" d="M491.28,-513.94C390.48,-509.21 246.67,-497.23 200,-467 189.96,-460.49 186,-455.97 186,-444 186,-444 186,-444 186,-258 186,-236.62 228.28,-220.65 273.56,-209.67"/>
<polygon fill="#607d8b" stroke="#607d8b" points="274.31,-212.01 280.56,-208.02 273.18,-207.25 274.31,-212.01"/>
</g>
<!-- catalogbundle -->
<g id="node24" class="node">
<title>catalogbundle</title>
<polygon fill="#f7e4b2" stroke="#40566b" points="587.5,-461 388.5,-461 388.5,-425 593.5,-425 593.5,-455 587.5,-461"/>
<polyline fill="none" stroke="#40566b" points="587.5,-461 587.5,-455 "/>
<polyline fill="none" stroke="#40566b" points="593.5,-455 587.5,-455 "/>
<text text-anchor="middle" x="491" y="-446.2" font-family="Helvetica,sans-Serif" font-size="11.00">Checksummed completed catalog</text>
<text text-anchor="middle" x="491" y="-434.2" font-family="Helvetica,sans-Serif" font-size="11.00">downstream restart bundle</text>
</g>
<!-- catalogbundle&#45;&gt;nearestwide -->
<g id="edge36" class="edge">
<title>catalogbundle&#45;&gt;nearestwide</title>
<path fill="none" stroke="#607d8b" stroke-dasharray="5,2" d="M513.19,-424.96C527.33,-414.21 546.11,-400.1 563,-388 568.37,-384.15 574.06,-380.16 579.7,-376.25"/>
<polygon fill="#607d8b" stroke="#607d8b" points="581.4,-378.06 585.77,-372.06 578.62,-374.02 581.4,-378.06"/>
<text text-anchor="middle" x="588" y="-391.8" font-family="Times,serif" font-size="14.00">restart</text>
</g>
<!-- catalogbundle&#45;&gt;links -->
<g id="edge37" class="edge">
<title>catalogbundle&#45;&gt;links</title>
<path fill="none" stroke="#607d8b" stroke-dasharray="5,2" d="M491.76,-424.84C492.57,-388.07 490.05,-300.21 452,-241 444.64,-229.55 433.65,-219.92 422.55,-212.26"/>
<polygon fill="#607d8b" stroke="#607d8b" points="423.59,-210.01 416.39,-208.21 420.9,-214.1 423.59,-210.01"/>
<text text-anchor="middle" x="535" y="-296.8" font-family="Times,serif" font-size="14.00">optional restart</text>
</g>
<!-- report -->
<g id="node35" class="node">
<title>report</title>
<path fill="#e8e1f5" stroke="#40566b" d="M587.5,-58C587.5,-58 422.5,-58 422.5,-58 416.5,-58 410.5,-52 410.5,-46 410.5,-46 410.5,-34 410.5,-34 410.5,-28 416.5,-22 422.5,-22 422.5,-22 587.5,-22 587.5,-22 593.5,-22 599.5,-28 599.5,-34 599.5,-34 599.5,-46 599.5,-46 599.5,-52 593.5,-58 587.5,-58"/>
<text text-anchor="middle" x="505" y="-43.2" font-family="Helvetica,sans-Serif" font-size="11.00">Checksummed HTML/PDF/JSON</text>
<text text-anchor="middle" x="505" y="-31.2" font-family="Helvetica,sans-Serif" font-size="11.00">report checkpoint</text>
</g>
<!-- browser&#45;&gt;report -->
<g id="edge38" class="edge">
<title>browser&#45;&gt;report</title>
<path fill="none" stroke="#607d8b" d="M767.05,-424.97C791.68,-408.95 822,-382.43 822,-349 822,-349 822,-349 822,-114 822,-69.07 699.55,-51.79 606.86,-45.15"/>
<polygon fill="#607d8b" stroke="#607d8b" points="606.83,-42.69 599.68,-44.65 606.49,-47.58 606.83,-42.69"/>
</g>
<!-- nearestwide&#45;&gt;report -->
<g id="edge39" class="edge">
<title>nearestwide&#45;&gt;report</title>
<path fill="none" stroke="#607d8b" d="M713.65,-334.47C755.26,-323.09 795,-301.39 795,-260 795,-260 795,-260 795,-114 795,-102.26 791.57,-97.8 782,-91 754.13,-71.21 673.99,-58.12 607.04,-50.31"/>
<polygon fill="#607d8b" stroke="#607d8b" points="607.01,-47.84 599.78,-49.48 606.45,-52.71 607.01,-47.84"/>
</g>
<!-- contacts -->
<g id="node27" class="node">
<title>contacts</title>
<polygon fill="#e9f5f3" stroke="#40566b" points="357.5,-467 212.5,-467 212.5,-419 363.5,-419 363.5,-461 357.5,-467"/>
<polyline fill="none" stroke="#40566b" points="357.5,-467 357.5,-461 "/>
<polyline fill="none" stroke="#40566b" points="363.5,-461 357.5,-461 "/>
<text text-anchor="middle" x="288" y="-452.2" font-family="Helvetica,sans-Serif" font-size="11.00">Optional &#45;&#45;with&#45;contacts</text>
<text text-anchor="middle" x="288" y="-440.2" font-family="Helvetica,sans-Serif" font-size="11.00">versioned dm6 sources</text>
<text text-anchor="middle" x="288" y="-428.2" font-family="Helvetica,sans-Serif" font-size="11.00">7 observed contexts</text>
</g>
<!-- normalizecontacts -->
<g id="node28" class="node">
<title>normalizecontacts</title>
<path fill="#d8eeea" stroke="#40566b" d="M423.5,-366C423.5,-366 248.5,-366 248.5,-366 242.5,-366 236.5,-360 236.5,-354 236.5,-354 236.5,-342 236.5,-342 236.5,-336 242.5,-330 248.5,-330 248.5,-330 423.5,-330 423.5,-330 429.5,-330 435.5,-336 435.5,-342 435.5,-342 435.5,-354 435.5,-354 435.5,-360 429.5,-366 423.5,-366"/>
<text text-anchor="middle" x="336" y="-351.2" font-family="Helvetica,sans-Serif" font-size="11.00">Exact coarsening + count merge</text>
<text text-anchor="middle" x="336" y="-339.2" font-family="Helvetica,sans-Serif" font-size="11.00">one ICE balance per context</text>
</g>
<!-- contacts&#45;&gt;normalizecontacts -->
<g id="edge29" class="edge">
<title>contacts&#45;&gt;normalizecontacts</title>
<path fill="none" stroke="#607d8b" d="M300.11,-418.53C307.37,-404.47 316.56,-386.66 323.83,-372.58"/>
<polygon fill="#607d8b" stroke="#607d8b" points="326.19,-373.35 327.22,-366 321.84,-371.1 326.19,-373.35"/>
</g>
<!-- decay -->
<g id="node29" class="node">
<title>decay</title>
<path fill="#d8eeea" stroke="#40566b" d="M427,-277C427,-277 279,-277 279,-277 273,-277 267,-271 267,-265 267,-265 267,-253 267,-253 267,-247 273,-241 279,-241 279,-241 427,-241 427,-241 433,-241 439,-247 439,-253 439,-253 439,-265 439,-265 439,-271 433,-277 427,-277"/>
<text text-anchor="middle" x="353" y="-262.2" font-family="Helvetica,sans-Serif" font-size="11.00">Context contact decay +</text>
<text text-anchor="middle" x="353" y="-250.2" font-family="Helvetica,sans-Serif" font-size="11.00">atlas&#45;wide power&#45;law model</text>
</g>
<!-- normalizecontacts&#45;&gt;decay -->
<g id="edge30" class="edge">
<title>normalizecontacts&#45;&gt;decay</title>
<path fill="none" stroke="#607d8b" d="M339.36,-329.81C341.9,-316.82 345.41,-298.82 348.24,-284.35"/>
<polygon fill="#607d8b" stroke="#607d8b" points="350.71,-284.49 349.65,-277.15 345.9,-283.55 350.71,-284.49"/>
</g>
<!-- decay&#45;&gt;links -->
<g id="edge31" class="edge">
<title>decay&#45;&gt;links</title>
<path fill="none" stroke="#607d8b" d="M360.47,-240.75C363.86,-232.91 367.92,-223.52 371.61,-215.01"/>
<polygon fill="#607d8b" stroke="#607d8b" points="373.92,-215.83 374.46,-208.43 369.43,-213.88 373.92,-215.83"/>
</g>
<!-- focused -->
<g id="node31" class="node">
<title>focused</title>
<path fill="#b9ddd6" stroke="#40566b" d="M270.5,-133C270.5,-133 61.5,-133 61.5,-133 55.5,-133 49.5,-127 49.5,-121 49.5,-121 49.5,-109 49.5,-109 49.5,-103 55.5,-97 61.5,-97 61.5,-97 270.5,-97 270.5,-97 276.5,-97 282.5,-103 282.5,-109 282.5,-109 282.5,-121 282.5,-121 282.5,-127 276.5,-133 270.5,-133"/>
<text text-anchor="middle" x="166" y="-118.2" font-family="Helvetica,sans-Serif" font-size="11.00">Enhancer posterior + contact O/E filter</text>
<text text-anchor="middle" x="166" y="-106.2" font-family="Helvetica,sans-Serif" font-size="11.00">observed&#45;contact candidates</text>
</g>
<!-- links&#45;&gt;focused -->
<g id="edge32" class="edge">
<title>links&#45;&gt;focused</title>
<path fill="none" stroke="#607d8b" d="M331.63,-171.98C299.28,-161.04 257.16,-146.81 223.5,-135.43"/>
<polygon fill="#607d8b" stroke="#607d8b" points="223.87,-132.97 216.45,-133.05 222.3,-137.61 223.87,-132.97"/>
</g>
<!-- nearest -->
<g id="node32" class="node">
<title>nearest</title>
<path fill="#dbeedc" stroke="#40566b" d="M504,-133C504,-133 320,-133 320,-133 314,-133 308,-127 308,-121 308,-121 308,-109 308,-109 308,-103 314,-97 320,-97 320,-97 504,-97 504,-97 510,-97 516,-103 516,-109 516,-109 516,-121 516,-121 516,-127 510,-133 504,-133"/>
<text text-anchor="middle" x="412" y="-118.2" font-family="Helvetica,sans-Serif" font-size="11.00">Supplement: enhancer posterior +</text>
<text text-anchor="middle" x="412" y="-106.2" font-family="Helvetica,sans-Serif" font-size="11.00">nearest active TSS per context</text>
</g>
<!-- links&#45;&gt;nearest -->
<g id="edge33" class="edge">
<title>links&#45;&gt;nearest</title>
<path fill="none" stroke="#607d8b" d="M389.11,-171.7C393.03,-162.15 397.96,-150.16 402.24,-139.75"/>
<polygon fill="#607d8b" stroke="#607d8b" points="404.55,-140.58 404.94,-133.18 400.01,-138.72 404.55,-140.58"/>
</g>
<!-- distancefocused -->
<g id="node33" class="node">
<title>distancefocused</title>
<path fill="#b9ddd6" stroke="#40566b" d="M757,-139C757,-139 553,-139 553,-139 547,-139 541,-133 541,-127 541,-127 541,-103 541,-103 541,-97 547,-91 553,-91 553,-91 757,-91 757,-91 763,-91 769,-97 769,-103 769,-103 769,-127 769,-127 769,-133 763,-139 757,-139"/>
<text text-anchor="middle" x="655" y="-124.2" font-family="Helvetica,sans-Serif" font-size="11.00">Enhancer posterior + active promoter</text>
<text text-anchor="middle" x="655" y="-112.2" font-family="Helvetica,sans-Serif" font-size="11.00">distance&#45;ranked candidates</text>
<text text-anchor="middle" x="655" y="-100.2" font-family="Helvetica,sans-Serif" font-size="11.00">nearest&#45;TSS baselines</text>
</g>
<!-- links&#45;&gt;distancefocused -->
<g id="edge34" class="edge">
<title>links&#45;&gt;distancefocused</title>
<path fill="none" stroke="#607d8b" d="M445.66,-171.98C480.22,-162.74 523.59,-151.14 561.88,-140.9"/>
<polygon fill="#607d8b" stroke="#607d8b" points="562.84,-143.18 568.97,-139.01 561.57,-138.45 562.84,-143.18"/>
</g>
<!-- focused&#45;&gt;report -->
<g id="edge40" class="edge">
<title>focused&#45;&gt;report</title>
<path fill="none" stroke="#607d8b" d="M245.05,-96.98C297.11,-85.77 365.25,-71.09 418.71,-59.58"/>
<polygon fill="#607d8b" stroke="#607d8b" points="419.49,-61.92 425.82,-58.05 418.46,-57.13 419.49,-61.92"/>
</g>
<!-- nearest&#45;&gt;report -->
<g id="edge41" class="edge">
<title>nearest&#45;&gt;report</title>
<path fill="none" stroke="#607d8b" d="M434.04,-96.7C447.01,-86.52 463.53,-73.55 477.37,-62.69"/>
<polygon fill="#607d8b" stroke="#607d8b" points="479.12,-64.43 483.12,-58.18 476.1,-60.57 479.12,-64.43"/>
</g>
<!-- distancefocused&#45;&gt;report -->
<g id="edge42" class="edge">
<title>distancefocused&#45;&gt;report</title>
<path fill="none" stroke="#607d8b" d="M607.54,-90.9C588.12,-81.45 565.85,-70.61 547.03,-61.45"/>
<polygon fill="#607d8b" stroke="#607d8b" points="547.63,-59.02 540.26,-58.16 545.49,-63.43 547.63,-59.02"/>
</g>
<!-- sources -->
<g id="node34" class="node">
<title>sources</title>
<polygon fill="#f3eef9" stroke="#40566b" points="153.5,-461 22.5,-461 22.5,-425 159.5,-425 159.5,-455 153.5,-461"/>
<polyline fill="none" stroke="#40566b" points="153.5,-461 153.5,-455 "/>
<polyline fill="none" stroke="#40566b" points="159.5,-455 153.5,-455 "/>
<text text-anchor="middle" x="91" y="-446.2" font-family="Helvetica,sans-Serif" font-size="11.00">Frozen upstream QC</text>
<text text-anchor="middle" x="91" y="-434.2" font-family="Helvetica,sans-Serif" font-size="11.00">artifacts for reporting</text>
</g>
<!-- sources&#45;&gt;report -->
<g id="edge43" class="edge">
<title>sources&#45;&gt;report</title>
<path fill="none" stroke="#607d8b" stroke-dasharray="5,2" d="M67.98,-424.8C48.25,-407.91 23,-380.2 23,-349 23,-349 23,-349 23,-114 23,-102.03 26.89,-97.41 37,-91 95.9,-53.64 284.38,-43.87 403.41,-41.51"/>
<polygon fill="#607d8b" stroke="#607d8b" points="403.49,-43.96 410.44,-41.38 403.4,-39.06 403.49,-43.96"/>
</g>
</g>
</svg>
